<svg xmlns="http://www.w3.org/2000/svg" viewBox="0 0 1190.55 386.1"><defs><style>.cls-1{fill:#fff;}</style></defs><title>BRADESCO_MASTERBRAND_RGB_AF2</title><g id="PROPORÇ_AO_E_REGRAS" data-name="PROPORÇ˜AO E REGRAS"><path class="cls-1" d="M219.21,226.61l-17.39,10a1.7,1.7,0,0,0-.85,1.47v68.76a.51.51,0,0,0,.51.51l19.13,0a3.63,3.63,0,0,0,3.63-3.63V229.21C224.24,226.35,221.49,225.31,219.21,226.61Zm307.88-22.67c-13.18,0-20.78,5.14-27.93,14.3A70.53,70.53,0,0,0,496,205.06c-2.68-.89-7.37-1.12-11.4-1.12a52.28,52.28,0,0,0-11.17,1.12V306.28c3.35.89,8.94,1.12,13.85,1.12a78.78,78.78,0,0,0,13.85-1.12V256.9c0-19.66,10.28-30.17,24.13-30.17a62.92,62.92,0,0,1,9.16.45,57.87,57.87,0,0,0,.45-22.34A39.68,39.68,0,0,0,527.09,203.94ZM191.72,126.76a269.94,269.94,0,0,0-44.54,3.87A84.61,84.61,0,0,1,214,98.22c20,0,40,7.55,53.52,18.78,2.43,2,4.3,2.21,6.18.37s1.68-3.68-.37-6.08C255.72,90.86,229.89,77,199.39,77.6c-39.86.74-73.73,26-86.65,60.95A169.67,169.67,0,0,0,80.56,152c-2.62,1.47-3.56,3.31-2.62,5.52.94,2,2.81,2.76,5.43,2,8.23-2.39,16.66-4.42,25.45-6.26a71.91,71.91,0,0,0-1.5,14.36c-.75,32.22,16.47,62.79,43,79.54,2.62,1.66,4.87,1.66,6.36-.37s1.31-3.87-.94-5.89c-16.84-15.1-26.2-37.56-26.2-59.84a79,79,0,0,1,6.55-31.85c8.8-.74,18.34-1.29,28.82-1.29,68.12,0,125.57,22.46,125.57,51.92,0,14.91-18.9,29.83-41.36,39.77-5.43,2.39-6,4.05-5.24,6.44.75,2.21,3.18,2.95,6,2C289.22,235.21,319,214,319,188.44,319,153.64,262.83,126.76,191.72,126.76ZM411.35,203c-8,0-15.86,1.79-20.78,4.25v-49.6c-7.82,2.9-16.09,6.93-23,12.51-3.58,2.9-4.69,5.81-4.69,10.06V302.7c7.37,3.13,22.34,5.81,36.65,5.81,36.2,0,57-22.12,57-54.07C456.49,222.71,441.74,203,411.35,203Zm-10.28,82.9c-2.9,0-7.37,0-10.5-1.12V229.19c3.8-2,9.16-3.13,16.09-3.13,13.85,0,21.23,9.61,21.23,27.71C427.89,272.76,419.17,285.95,401.07,285.95ZM193.23,241.56l-13.68,7.88a4.4,4.4,0,0,0-2.36,4.06v51.56a2.34,2.34,0,0,0,2.34,2.34h13.83a.51.51,0,0,0,.51-.51v-65A.43.43,0,0,0,193.23,241.56Zm793.49,44.17c-13.85,0-23-10.95-23-30.17,0-18.32,7.37-30.17,23.24-30.17A43.76,43.76,0,0,1,1004.6,229a59.16,59.16,0,0,1,9.83-19.44c-8.71-4.47-17.21-6.93-31.06-6.93-30.61,0-48.26,21.67-48.26,53,0,32.4,18.1,53,49.38,53,11.4,0,21.9-2,30.39-6.7a63.78,63.78,0,0,1-10.5-19.44C996.55,285.5,993.2,285.72,986.72,285.72Zm77.54-83.12c-31.06,0-48.49,21.23-48.49,53.18,0,32.4,18.32,52.73,48.49,52.73,31.28,0,48.71-20.78,48.71-52.73C1113,223.6,1095.54,202.6,1064.26,202.6Zm0,83.57c-15.42,0-20.11-12.51-20.11-30.39,0-17.43,4.69-30.84,20.11-30.84,15.86,0,20.33,13,20.33,30.84C1084.59,274.55,1079.45,286.17,1064.26,286.17Zm-486-83.57A116,116,0,0,0,548.32,206c-1.79,6.26-1.56,15.42,0,21.9a99,99,0,0,1,25.47-2.9c14.3,0,21.23,5.81,21.23,17.65v1.12c-4.25-.45-9.38-.89-13-.89-23.69,0-44,8.49-44,31.28,0,25.7,18.32,34.41,44.91,34.41a136.63,136.63,0,0,0,38.66-6V244.61C621.61,216.9,606.64,203.27,578.26,202.6ZM595,285.72a76.16,76.16,0,0,1-11.84,1.12c-12.74,0-19.66-3.8-19.66-12.74s6.93-12.51,19.66-12.51c4.25,0,9.16.45,11.84.67Zm305.45-39.55-11.17-4.69c-6.48-2.68-10.28-4.92-10.28-9.16,0-6.48,5.81-7.82,13.41-7.82a83,83,0,0,1,26.14,4.25,54.13,54.13,0,0,0,0-20.78c-6.7-3.58-19.22-5.36-30.17-5.36-21.45,0-37.76,11.62-37.76,29,0,15.64,6.7,23.46,25.47,31.06l8.71,3.58c8.27,3.35,10.73,5.36,10.73,10.73,0,8-8,9.38-14.75,9.38-11.17,0-19.66-2.23-30.39-6a44.47,44.47,0,0,0,0,21.67c9.16,4.92,21.67,6.48,34.86,6.48,21.23,0,38.21-11.17,38.21-31.28C923.49,260.7,916.34,252.88,900.47,246.17ZM793.89,202.6c-29.94,0-48.26,20.11-48.26,53.63s19.44,52.29,52.73,52.29c11.4,0,23.69-2,31.51-5.81a49.62,49.62,0,0,0,0-21.45c-10.28,2.9-19,4.69-28.6,4.69-15.42,0-26.14-5.81-28.38-22.12h63c.89-2.46,1.12-10.73,1.12-14.08C837,219.58,820,202.6,793.89,202.6Zm-21,40.89c2-12.29,9.38-19.66,20.56-19.66,12.51,0,17.43,8.49,17.88,19.66Zm-70.61-63.23v24.36A55.54,55.54,0,0,0,687.75,203c-30.61,0-51.39,20.56-51.39,53.4,0,33.52,20.33,52.06,52.06,52.06A132.68,132.68,0,0,0,730,302.26V157.69c-7.82,2.9-16.09,6.93-23,12.51C703.39,173.11,702.28,176,702.28,180.26Zm0,104.13a39.3,39.3,0,0,1-11.84,1.56c-18.32,0-25.47-12.07-25.47-29.49,0-19.44,7.15-31.28,25.25-31.28a42.74,42.74,0,0,1,12.07,1.56Z"/></g></svg>